PathFileType	4	(X/Y/Z)	C:/Users/opensim2020/Desktop/walking_exp_matlab/subject06_walking17_straight_04.trc	
DataRate	CameraRate	NumFrames	NumMarkers	Units	OrigDataRate	OrigDataStartFrame	OrigNumFrames	
100.00	100.00	7	45	mm	100.00	4524	318	
Frame#	Time	LFHD			RFHD			LBHD			RBHD			C7			T10			CLAV			STRN			RBAK			LSHO			LUPA			LELB			LFRM			LWRA			LWRB			LFIN			RSHO			RUPA			RELB			RFRM			RWRA			RWRB			RFIN			LASI			RASI			LPSI			RPSI			LTHI			LKNE			LTIB			LANK			LHEE			LTOE			RTHI			RKNE			RTIB			RANK			RHEE			RTOE			*39			*40			*41			*42			*43			*44			
		X1	Y1	Z1	X2	Y2	Z2	X3	Y3	Z3	X4	Y4	Z4	X5	Y5	Z5	X6	Y6	Z6	X7	Y7	Z7	X8	Y8	Z8	X9	Y9	Z9	X10	Y10	Z10	X11	Y11	Z11	X12	Y12	Z12	X13	Y13	Z13	X14	Y14	Z14	X15	Y15	Z15	X16	Y16	Z16	X17	Y17	Z17	X18	Y18	Z18	X19	Y19	Z19	X20	Y20	Z20	X21	Y21	Z21	X22	Y22	Z22	X23	Y23	Z23	X24	Y24	Z24	X25	Y25	Z25	X26	Y26	Z26	X27	Y27	Z27	X28	Y28	Z28	X29	Y29	Z29	X30	Y30	Z30	X31	Y31	Z31	X32	Y32	Z32	X33	Y33	Z33	X34	Y34	Z34	X35	Y35	Z35	X36	Y36	Z36	X37	Y37	Z37	X38	Y38	Z38	X39	Y39	Z39	X40	Y40	Z40	X41	Y41	Z41	X42	Y42	Z42	X43	Y43	Z43	X44	Y44	Z44	X45	Y45	Z45	

239	2.380	1539.16943	-188.96823	1668.93396	1408.38135	-179.69444	1650.68164	1551.52637	-56.21231	1614.71179	1423.05042	-48.17990	1602.11108	1498.40955	-49.41443	1455.04614	1487.78870	-13.15477	1125.71326	1495.54272	-158.35410	1376.94580	1503.71765	-197.13979	1200.95776	1419.01892	24.45752	1284.07324	1657.09705	-109.66127	1410.49817	1740.08826	-149.93987	1217.46667	1760.51501	-185.16196	1111.14722	1769.80029	-287.56247	999.64972	1708.34009	-391.38828	939.27960	1754.33484	-354.25940	900.88446	1743.73523	-435.78519	861.03052	1335.13513	-112.58051	1408.57495	1247.96436	-70.15298	1210.79639	1237.23022	-77.87033	1088.84253	1220.67102	-97.08283	969.99506	1253.55139	-163.62105	834.59680	1213.92078	-108.80566	832.93152	1213.03333	-148.84328	758.32684	1595.25122	-188.03134	960.32886	1373.19519	-192.81493	973.85712	1562.42920	-30.85890	991.56555	1394.42822	-40.12489	995.15381	1631.11804	-97.10303	647.77582	1603.02661	-77.37817	484.91287	1580.47363	3.91549	240.09195	1523.57788	38.80148	75.08979	1477.07178	79.44151	66.82668	1522.83936	-103.66123	39.52459	1302.14355	-198.57347	646.07971	1333.30603	-241.78816	529.36902	1330.87549	-264.88470	268.56107	1370.10571	-306.88330	85.77288	1418.53162	-277.34567	54.81495	1373.54712	-465.80704	74.23640	1484.82813	-84.54675	1703.73730															 
240	2.390	1538.47949	-195.03752	1668.42920	1407.69031	-185.69664	1649.99268	1551.08582	-61.85392	1614.30994	1422.55518	-54.10970	1601.60181	1497.94312	-55.11161	1454.58118	1487.10852	-18.84751	1125.21716	1495.14343	-164.11630	1376.34460	1503.44580	-202.71959	1200.32129	1418.57825	18.68766	1283.52356	1656.59680	-115.36092	1410.10083	1739.32336	-155.45308	1216.90283	1759.55212	-190.54602	1110.46448	1767.91565	-293.86417	999.82416	1705.94482	-398.35049	941.35675	1751.39050	-361.59280	901.98120	1740.36084	-443.51437	863.01831	1334.66504	-118.40855	1407.95190	1247.93372	-75.68813	1210.17285	1237.04285	-83.21398	1088.15759	1220.54370	-102.31501	969.27679	1253.32422	-168.59390	833.72681	1213.84180	-113.69523	832.11847	1212.84619	-153.57939	757.55066	1595.19934	-193.32280	959.80139	1373.20471	-198.82097	973.18176	1561.85278	-36.30209	991.19757	1393.79260	-46.19224	994.71722	1630.93518	-101.30885	647.50775	1602.93518	-80.88332	484.69104	1579.81799	1.92336	240.57620	1523.35193	38.61953	75.66219	1476.96899	79.19168	67.70473	1523.06934	-103.64017	39.31094	1302.41760	-204.24561	645.39551	1334.00964	-247.43887	529.02344	1331.51501	-274.52591	268.49808	1370.90051	-320.41656	86.58138	1419.56042	-291.74442	55.14447	1373.61121	-479.73373	78.17998	1484.15112	-90.62688	1703.22766															 
241	2.400	1537.71606	-201.09550	1667.83228	1406.96167	-191.71782	1649.30115	1550.37012	-67.84007	1613.90649	1421.88757	-60.10243	1601.04810	1497.44055	-60.99653	1454.10657	1486.48340	-24.58931	1124.68970	1494.70801	-169.94589	1375.79114	1503.15527	-208.42001	1199.80664	1418.12683	12.88579	1282.94519	1656.07678	-121.01943	1409.59302	1738.48291	-161.00937	1216.31970	1758.41431	-195.83760	1109.69482	1766.00964	-299.94720	999.81403	1703.54150	-405.12491	943.17780	1748.31299	-368.63034	902.77130	1736.95264	-450.90656	864.69177	1334.11548	-124.31756	1407.33093	1247.40442	-81.11349	1209.51086	1236.81323	-88.65589	1087.48657	1220.35681	-107.50242	968.55615	1252.93359	-173.84331	832.99750	1213.67932	-118.61100	831.39343	1212.60242	-158.39545	756.69080	1595.16211	-198.67648	959.30481	1373.20020	-204.90331	972.49847	1561.15088	-41.76012	990.79749	1393.16797	-52.27481	994.22125	1630.76929	-105.53013	647.24152	1602.78845	-84.33261	484.47479	1579.36755	0.02787	240.93352	1523.52734	38.01123	76.23942	1476.99548	78.97517	68.64706	1522.93433	-103.94421	39.37465	1302.90393	-210.16714	644.78760	1334.92883	-253.16263	528.79492	1332.06787	-283.71429	268.43253	1371.58118	-332.93060	87.38126	1420.63098	-305.33075	55.41859	1373.30396	-492.60864	81.98754	1483.41052	-96.70789	1702.74866															 
242	2.410	1536.96204	-207.14700	1667.29614	1406.17188	-197.63609	1648.60303	1549.74561	-73.83257	1613.48083	1421.14880	-66.05457	1600.49597	1496.75745	-66.88532	1453.52161	1485.70081	-30.39273	1124.19116	1494.25159	-175.91484	1375.19531	1502.84680	-214.17516	1199.20386	1417.42798	6.96605	1282.32642	1655.52100	-126.69366	1409.07886	1737.52356	-166.60170	1215.64844	1757.12170	-201.02048	1108.87915	1763.95715	-305.82269	999.63928	1700.99353	-411.55756	944.66614	1745.31299	-375.35562	903.43121	1733.44763	-457.98138	866.06390	1333.54785	-130.30000	1406.66846	1247.16235	-86.94677	1208.85754	1236.45081	-94.10947	1086.77356	1220.03760	-112.72721	967.80908	1252.69727	-178.67294	832.09271	1213.43823	-123.69431	830.71991	1212.31909	-163.22021	755.91101	1595.07959	-204.05017	958.78430	1373.10620	-210.99333	971.84143	1560.47339	-47.28897	990.39026	1392.40100	-58.38159	993.69330	1630.59167	-109.75089	646.95630	1602.64441	-87.78582	484.23096	1578.94849	-1.84035	241.29993	1523.30542	37.97213	76.86049	1477.00330	78.47879	69.31284	1522.94177	-103.95123	39.38218	1303.61902	-216.10379	644.22827	1335.87195	-258.75131	528.48907	1332.68835	-292.50253	268.32578	1372.30347	-344.81155	88.15096	1421.61365	-317.96182	55.69165	1372.70679	-504.20917	85.43197	1482.58374	-102.74624	1702.22864															 
243	2.420	1536.05005	-213.16005	1666.74658	1405.41235	-203.72806	1647.95435	1548.94592	-79.80093	1613.01599	1420.45239	-72.07217	1599.90759	1496.07031	-72.88511	1452.96851	1484.96082	-36.26577	1123.63086	1493.61487	-181.62379	1374.58618	1502.40088	-219.94325	1198.58386	1416.69568	1.08741	1281.77209	1654.91370	-132.42244	1408.51794	1736.51917	-172.13684	1214.91724	1755.78613	-206.21729	1107.95923	1761.83215	-311.59534	999.37128	1698.38989	-417.81885	945.81427	1742.32263	-381.94077	903.92090	1729.90051	-464.74460	867.08398	1332.92310	-136.38477	1406.03101	1246.52209	-92.42461	1208.03333	1236.05188	-99.67893	1086.10083	1219.70410	-117.99995	967.07922	1252.41187	-183.76756	831.19910	1213.15613	-128.28961	829.87372	1212.07043	-168.04158	754.96631	1594.95227	-209.50929	958.27087	1372.96423	-217.19008	971.16553	1559.76013	-52.89466	989.94226	1391.73816	-64.55251	993.20026	1630.35925	-114.02180	646.63617	1602.37671	-91.19391	484.03964	1578.26392	-3.43190	241.77785	1523.27991	37.26401	77.49191	1476.93835	78.21874	70.25122	1522.73474	-104.24312	39.41391	1304.44312	-222.38440	643.67810	1336.81848	-264.57407	528.07629	1333.11682	-300.81995	268.13211	1372.89270	-355.64682	88.65498	1422.44287	-329.60849	55.83038	1372.01807	-515.04462	88.59226	1481.75854	-108.81878	1701.70081															 
244	2.430	1535.31750	-219.56721	1666.26160	1404.58325	-209.76190	1647.34644	1548.11438	-85.86040	1612.52087	1419.61890	-78.09433	1599.33264	1495.29431	-78.85680	1452.46741	1484.17493	-42.17005	1123.12732	1492.99255	-187.57425	1373.96619	1501.92761	-225.69035	1198.01221	1415.87036	-4.88773	1281.22034	1654.28760	-138.39743	1407.97888	1735.44482	-177.68478	1214.10193	1754.39392	-211.43808	1106.93250	1759.71338	-317.32568	998.87744	1695.71997	-423.85193	946.67981	1739.26965	-388.28415	904.12085	1726.32898	-471.25571	867.74725	1332.24048	-142.51564	1405.38513	1246.10132	-98.51105	1207.36182	1235.53564	-105.43446	1085.37146	1219.33984	-123.50951	966.28766	1252.08875	-188.84157	830.23761	1212.78589	-133.48180	829.07947	1211.77026	-172.79430	754.06812	1594.84167	-215.03566	957.77533	1372.72815	-223.54454	970.54016	1559.16028	-58.55558	989.52332	1391.10486	-70.73848	992.68762	1630.11682	-118.35408	646.40680	1602.14978	-94.65129	483.89261	1578.10840	-5.45422	242.23145	1523.12683	36.96046	78.21362	1476.93726	78.12817	71.46941	1522.70032	-104.36076	39.40724	1305.32849	-228.83429	643.24103	1337.80823	-270.30087	527.65930	1333.43848	-308.59671	267.87234	1373.78589	-365.50638	88.84406	1423.09192	-340.18103	55.84308	1371.47864	-524.84540	91.10252	1480.84900	-114.88233	1701.13684															 
245	2.440	1534.33789	-225.39595	1665.74133	1403.69897	-215.76360	1646.71033	1547.26013	-91.85488	1611.98010	1418.78369	-84.17210	1598.68225	1494.55469	-84.83263	1452.00623	1483.38025	-48.13179	1122.62341	1492.31335	-193.52052	1373.41541	1501.42041	-231.42419	1197.32666	1415.02039	-10.90543	1280.73450	1653.56409	-144.22099	1407.31372	1734.38892	-183.14462	1213.28381	1752.95190	-216.57402	1105.91492	1757.47693	-322.86676	998.30066	1693.03601	-429.70041	947.21069	1736.32312	-394.37000	904.20087	1722.77563	-477.42542	868.08337	1331.49524	-148.76567	1404.71460	1245.48828	-104.65943	1206.77942	1234.98059	-111.26406	1084.72363	1218.83801	-128.99689	965.55621	1251.59326	-194.34134	829.45758	1212.36694	-138.70924	828.30841	1211.44202	-178.00041	753.22729	1594.72314	-220.60486	957.32355	1372.55688	-229.86249	969.93384	1558.48621	-64.21436	989.06940	1390.46448	-76.97606	992.21533	1629.95386	-122.67936	646.23969	1602.13110	-98.29464	483.85159	1577.73901	-7.01144	242.86861	1523.16565	36.55262	79.10962	1477.02344	77.61530	72.43195	1522.66272	-104.51225	39.40726	1306.20642	-235.52031	642.83044	1338.72546	-276.37738	527.26221	1333.74976	-316.28339	267.71469	1373.93066	-374.58334	89.25641	1423.62878	-349.67612	55.65880	1371.19666	-533.62476	92.90845	1479.91101	-120.88113	1700.56287															 
